{
    "asset" : {
        "generator" : "Khronos glTF Blender I/O v0.9.24",
        "version" : "2.0"
    },
    "scene" : 0,
    "scenes" : [
        {
            "name" : "Scene",
            "nodes" : [
                0
            ]
        }
    ],
    "nodes" : [
        {
            "mesh" : 0,
            "name" : "node_MeshObject645397184-PolyPaper13",
            "rotation" : [
                0.7071068286895752,
                0,
                0,
                0.7071067094802856
            ]
        }
    ],
    "materials" : [
        {
            "name" : "BlocksPaper_COLOR_0",
            "pbrMetallicRoughness" : {
                "metallicFactor" : 0,
                "roughnessFactor" : 0.6000000238418579
            }
        }
    ],
    "meshes" : [
        {
            "name" : "mesh_m0-PolyPaper13_-643106",
            "primitives" : [
                {
                    "attributes" : {
                        "POSITION" : 0,
                        "NORMAL" : 1,
                        "COLOR_0" : 2
                    },
                    "indices" : 3,
                    "material" : 0
                }
            ]
        }
    ],
    "accessors" : [
        {
            "bufferView" : 0,
            "componentType" : 5126,
            "count" : 6435,
            "max" : [
                0.08802250772714615,
                0.25189122557640076,
                0.13344310224056244
            ],
            "min" : [
                -0.08407636731863022,
                -0.9063400626182556,
                -0.35930564999580383
            ],
            "type" : "VEC3"
        },
        {
            "bufferView" : 1,
            "componentType" : 5126,
            "count" : 6435,
            "type" : "VEC3"
        },
        {
            "bufferView" : 2,
            "componentType" : 5126,
            "count" : 6435,
            "type" : "VEC4"
        },
        {
            "bufferView" : 3,
            "componentType" : 5123,
            "count" : 6588,
            "type" : "SCALAR"
        }
    ],
    "bufferViews" : [
        {
            "buffer" : 0,
            "byteLength" : 77220,
            "byteOffset" : 0
        },
        {
            "buffer" : 0,
            "byteLength" : 77220,
            "byteOffset" : 77220
        },
        {
            "buffer" : 0,
            "byteLength" : 102960,
            "byteOffset" : 154440
        },
        {
            "buffer" : 0,
            "byteLength" : 13176,
            "byteOffset" : 257400
        }
    ],
    "buffers" : [
        {
            "byteLength" : 270576,
            "uri" : "rifle.bin"
        }
    ]
}
